<svg xmlns="http://www.w3.org/2000/svg" width="292" height="415" viewBox="0 0 292 415" fill="none">
    <path
        d="M291.659 208.129C291.659 279.464 279.493 331.916 255.999 365.066C232.085 398.215 195.586 415 146.081 415C97.8341 415 61.7541 397.796 37.0015 362.968C12.6685 328.14 0.501953 276.527 0.501953 208.129C0.501953 136.375 12.2489 83.9231 36.582 50.3539C60.4955 16.7846 96.9951 0 146.5 0C194.327 0 230.827 17.6239 255.16 52.452C279.493 87.2801 291.659 138.893 291.659 208.129ZM108.742 208.129C108.742 253.868 111.679 285.339 117.133 302.123C123.006 319.328 132.236 327.72 145.661 327.72C159.086 327.72 168.736 318.908 174.609 301.284C180.063 283.66 183 252.609 183 208.129C183 163.231 180.063 132.179 174.609 114.135C168.736 96.092 159.506 87.2801 146.081 87.2801C132.656 87.2801 123.006 96.092 117.552 113.296C111.679 130.501 108.742 161.972 108.742 208.129Z"
        fill="#da251d" />
</svg>